PathFileType	4	(X/Y/Z)	C:/Users/beibeiliu/ov580/test_trc/User1\sequence.20_training_dense_right.trc
DataRate	CameraRate	NumFrames	NumMarkers	Units	OrigDataRate	OrigDataStartFrame	OrigNumFrames
120	120	14	19	mm	120	1	27
Frame#	Time	ThumbCMC			ThumbMCP			ThumbIP			ThumbTip			IndexMCP			IndexPIP			IndexTip			MiddleMCP			MiddlePIP			MiddleTip			RingMCP			RingPIP			RingTip			PinkyMCP			PinkyPIP			PinkyTip			BackHand1			BackHand2			BackHand3	
		X0	Y0	Z0	X1	Y1	Z1	X2	Y2	Z2	X3	Y3	Z3	X4	Y4	Z4	X5	Y5	Z5	X6	Y6	Z6	X7	Y7	Z7	X8	Y8	Z8	X9	Y9	Z9	X10	Y10	Z10	X11	Y11	Z11	X12	Y12	Z12	X13	Y13	Z13	X14	Y14	Z14	X15	Y15	Z15	X16	Y16	Z16	X17	Y17	Z17	X18	Y18	Z18	
0	0	166.55	59.4329	95.6451	149.522	83.1852	83.2087	139.457	100.071	64.2636	133.667	116.504	56.5447	148.982	43.1712	11.2197	140.949	39.9773	-15.3817	138.054	38.7245	-36.5341	130.567	9.86996	10.3481	94.6692	10.0819	14.7797	87.6295	14.8787	54.1518	125.058	-9.17287	25.3245	94.6436	-6.47596	41.3163	99.7383	3.24168	74.3148	131.765	-26.7107	40.3393	105.417	-18.7391	52.4933	109.52	1.76349	76.116	180.044	0.0564223	57.0135	198.856	4.30822	89.0269	185.156	36.3403	73.3671	
1	0.00833333	195.892	57.4675	88.3228	193.946	80.2906	78.4261	196.575	100.159	54.9277	202.949	118.054	51.6787	173.933	45.1958	7.88828	169.638	45.9373	-18.228	165.526	38.4172	-42.2937	145.666	31.6056	6.93028	110.783	48.8516	11.1958	105.621	53.5786	49.2722	128.378	16.6764	18.8206	101.782	26.1392	32.7614	112.465	36.2037	66.187	127.031	-5.36221	35.5628	105.141	14.6733	43.7989	123.354	27.7786	67.2987	177.424	-4.00383	57.9763	193.067	-8.11988	90.5923	199.855	25.5931	69.5914	
2	0.0166667	218.512	51.0124	92.3728	221.218	72.853	73.8168	233.038	90.8215	55.1005	240.558	105.788	45.6841	209.009	34.8446	5.48656	210.695	35.4682	-18.2132	207.616	26.6932	-43.8841	173.532	29.8193	-3.5322	146.476	51.5361	-3.81719	135.41	61.4565	33.4784	155.174	14.5162	9.45539	132.741	35.516	15.4376	135.547	42.427	49.7443	148.388	-2.58616	23.3333	129.414	18.7707	25.958	139.865	33.7236	51.2322	192.326	-9.56396	55.8394	200.51	-16.14	89.0204	217.842	14.775	72.2949	
3	0.025	224.477	57.0917	92.2508	223.479	78.4869	77.9593	234.107	96.4345	55.83	239.828	115.255	49.6065	241.745	39.995	12.9537	249.784	37.833	-17.1986	250.425	29.5886	-42.2427	210.357	19.5283	-5.40979	177.777	36.0098	-14.2382	159.797	44.9491	17.1378	193.225	7.30849	0.682601	162.283	22.4713	3.72642	159.284	31.0676	35.2016	186.971	-12.2462	16.5475	164.704	4.13352	11.5251	163.007	23.1342	41.8183	225.389	-7.00079	57.4594	222.531	-11.9539	94.3838	238.226	24.3268	74.7485	
4	0.0333333	205.693	66.846	94.3236	192.954	80.8418	77.8909	192.059	103.535	60.5214	186.568	122.308	54.5056	243.69	69.2039	17.5964	251.956	75.7484	-4.56866	260.142	71.3509	-31.9995	233.452	42.0133	1.10303	198.733	34.6105	-16.2776	175.114	29.5998	10.3395	227.04	16.2835	5.60897	190.539	13.289	-0.945207	178.028	13.9394	30.6512	228.34	-7.13041	18.2324	196.794	-2.36457	9.86571	185.602	9.23073	37.6886	249.161	16.8962	65.2713	248.367	7.1041	98.5064	240.147	43.6644	84.6799	
5	0.0416667	179.96	60.4679	93.0073	162.332	61.997	76.2892	146.923	75.7342	62.8898	130.728	87.9885	56.4447	209.475	86.0206	20.0366	218.977	93.4041	-5.48342	221.931	103.082	-31.4342	224.131	55.4314	3.93919	204.032	29.5565	-13.7346	185.782	13.0961	14.933	230.975	31.5731	6.94262	210.098	6.09442	2.12667	194.677	3.1891	30.915	246.099	12.5824	20.3764	221.568	1.03515	14.1634	201.65	1.53711	45.1562	250.222	44.9514	66.899	247.243	40.4543	100.784	222.174	64.3481	83.9555	
6	0.05	161.001	51.4305	94.3273	138.2	46.3224	81.8881	116.812	51.297	64.2524	99.29	52.1771	59.6627	179.996	68.804	13.8854	178.67	74.1378	-12.5389	187.686	77.1011	-37.0286	202.528	43.0152	4.76451	193.915	8.45049	-1.85949	185.46	-3.87781	34.3377	223.777	23.1356	14.4864	210.278	-7.27914	18.8087	198.865	-8.90221	49.5201	239.3	19.644	31.5595	222.656	-7.48347	32.4343	204.365	-1.48464	61.5229	228.321	59.4994	71.0055	226.462	59.1726	104.902	195.255	68.1844	82.7373	
7	0.0583333	141.015	45.7469	102.728	119.36	35.1641	88.4671	98.7839	32.4602	71.5059	79.621	32.6718	65.9349	153.861	35.9502	13.8457	155.786	29.0704	-12.1231	157.859	28.8769	-36.7558	184.146	9.71646	14.2949	176.983	-23.5863	22.8993	172.388	-17.6817	63.7535	205.576	-2.15635	29.7064	194.988	-28.9358	46.4409	181.338	-18.6631	73.5495	222.773	3.77104	44.3459	207.368	-21.3394	52.105	189.14	-9.22826	80.8918	206.597	52.1178	65.0718	206.786	63.0515	103.759	171.217	61.9305	82.9058	
8	0.0666667	135.119	52.0267	102.358	109.042	50.0476	94.4403	90.5459	49.8659	77.5635	71.5701	55.3341	72.5733	135.825	23.1711	20.1364	131.607	14.4184	-1.58257	134.112	6.18482	-22.4101	155.811	-7.43305	26.5525	139.299	-35.4425	45.7591	137.841	-22.2397	77.3392	172.195	-17.8049	41.7285	155.15	-38.6559	63.152	151.826	-17.1085	92.7014	192.224	-22.2383	55.6405	169.149	-33.3748	71.6187	163.057	-12.6991	94.1558	197.614	33.2576	66.8978	203.116	48.7314	98.4935	167.508	55.4635	83.8486	
9	0.075	145.267	69.8969	105.622	121.003	79.2291	91.178	106.194	88.2101	72.9143	94.6308	102.22	64.7088	126.677	34.9077	21.637	115.845	30.451	3.52648	112.174	17.4536	-22.4576	119.041	2.77597	29.0649	94.4096	-11.4467	51.5385	101.533	2.46862	83.583	132.095	-16.342	46.5394	107.188	-21.2375	69.3603	117.317	-0.612929	95.7798	147.294	-31.2375	61.6721	122.749	-25.4809	78.8274	130.394	2.15761	94.6765	179.181	18.0655	69.3512	196.857	25.7128	95.444	173.677	50.2025	81.4289	
10	0.0833333	170.295	68.3212	94.4332	163.216	94.1641	77.9154	157.546	110.55	58.7032	155.746	125.367	46.7999	137.992	51.4014	17.729	125.613	49.0312	-8.37467	117.968	36.7172	-27.3475	108.66	29.2721	23.655	78.2157	33.6554	38.6734	87.7911	41.9078	75.5984	101.693	8.61891	41.1624	80.3407	20.4978	62.2746	99.2985	30.6302	89.2012	107.526	-11.4549	58.0429	90.4311	8.50421	71.6636	115.681	24.1675	90.8226	164.261	6.75775	67.6101	184.832	4.85944	95.2728	177.574	37.2596	77.19	
11	0.0916667	193.45	58.5804	90.8335	193.437	78.8823	70.9694	199.955	97.5568	45.8909	207.268	113.961	34.2368	164.063	45.2685	6.19286	156.196	40.3458	-18.3342	147.853	33.3058	-42.7438	131.134	35.7051	11.5307	98.1873	53.042	19.5768	101.434	64.4144	56.158	112.892	19.5612	26.8011	91.4381	38.5501	42.9859	108.155	46.7645	73.3971	109.457	5.24223	42.8013	95.1641	27.0832	56.6746	116.534	33.8623	79.9097	162.983	-2.41876	59.5821	180.298	-5.85741	92.4985	188.581	27.4944	68.3615	
12	0.1	206.244	56.528	88.3982	203.88	74.8267	67.9365	208.818	90.7909	48.0728	215.432	106.749	35.7757	198.108	35.9656	0.313464	194.396	29.9698	-23.3767	191.9	26.3991	-45.8779	160.181	22.8528	-2.02725	126.764	34.8048	4.74391	123.285	46.5434	38.2233	144.239	6.13418	13.4923	116.967	22.2002	27.3578	126.301	35.4001	56.2898	138.372	-11.7871	30.2685	121.682	10.8706	37.7101	135.361	24.8829	63.3683	192.809	-9.70547	56.6926	200.349	-10.9453	91.0035	212.571	21.0476	71.5569	
13	0.108333	193.482	55.1603	88.0313	179.901	71.7677	67.781	178.915	87.2207	47.7636	173.646	104.987	41.2167	214.491	45.7496	7.52902	219.739	44.2171	-19.6067	223.337	41.7172	-48.3069	198.148	12.2304	-1.77662	162.517	7.39256	-8.01665	146.091	13.6054	29.774	186.91	-10.7294	7.09806	156.329	-5.70336	11.7816	148.427	0.340705	41.9286	191.726	-29.0992	25.6504	160.738	-19.4892	28.472	157.821	-0.0780534	49.4796	227.539	2.50446	61.6965	230.586	1.73889	92.7266	224.363	37.8238	77.35	
